HIERARCHY
ROOT Hips
{
	OFFSET 59.296299 -6.087015 92.875397
	CHANNELS 6 Xposition Yposition Zposition Xrotation Yrotation Zrotation
	JOINT spine
	{
		OFFSET 0.000000 -0.429886 7.475601
		CHANNELS 3 Xrotation Yrotation Zrotation
		JOINT spine1
		{
			OFFSET 0.000000 -0.000002 9.923012
			CHANNELS 3 Xrotation Yrotation Zrotation
			JOINT spine2
			{
				OFFSET 0.000000 -0.000001 9.508041
				CHANNELS 3 Xrotation Yrotation Zrotation
				JOINT Neck
				{
					OFFSET 0.000000 -1.163844 24.411095
					CHANNELS 3 Xrotation Yrotation Zrotation
					JOINT Head
					{
						OFFSET 0.000000 -0.000001 7.375229
						CHANNELS 3 Xrotation Yrotation Zrotation
						End Site
						{
							OFFSET 0.000000 5.887407 17.852203
						}
					}
				}
				JOINT RightShoulder
				{
					OFFSET -4.003559 0.557467 10.267906
					CHANNELS 3 Xrotation Yrotation Zrotation
					JOINT RightArm
					{
						OFFSET 0.000000 -0.000002 13.467300
						CHANNELS 3 Xrotation Yrotation Zrotation
						JOINT RightArmRoll
						{
							OFFSET 0.000000 -0.000001 6.798584
							CHANNELS 3 Xrotation Yrotation Zrotation
							JOINT RightForeArm
							{
								OFFSET 0.000000 -0.000003 19.801804
								CHANNELS 3 Xrotation Yrotation Zrotation
								JOINT RightForeArmRoll
								{
									OFFSET 0.000000 -0.000001 7.629059
									CHANNELS 3 Xrotation Yrotation Zrotation
									JOINT RightHand
									{
										OFFSET 0.000000 -0.000002 15.309799
										CHANNELS 3 Xrotation Yrotation Zrotation
										End Site
										{
											OFFSET 0.000000 0.000000 0.100006
										}
									}
								}
							}
						}
					}
				}
				JOINT LeftShoulder
				{
					OFFSET 4.003559 0.557467 10.267906
					CHANNELS 3 Xrotation Yrotation Zrotation
					JOINT LeftArm
					{
						OFFSET 0.000000 -0.000002 13.467300
						CHANNELS 3 Xrotation Yrotation Zrotation
						JOINT LeftArmRoll
						{
							OFFSET 0.000000 -0.000001 6.798584
							CHANNELS 3 Xrotation Yrotation Zrotation
							JOINT LeftForeArm
							{
								OFFSET 0.000000 -0.000003 19.801804
								CHANNELS 3 Xrotation Yrotation Zrotation
								JOINT LeftForeArmRoll
								{
									OFFSET 0.000000 -0.000001 7.629059
									CHANNELS 3 Xrotation Yrotation Zrotation
									JOINT LeftHand
									{
										OFFSET 0.000000 -0.000002 15.309799
										CHANNELS 3 Xrotation Yrotation Zrotation
										End Site
										{
											OFFSET 0.000000 0.000000 0.100006
										}
									}
								}
							}
						}
					}
				}
			}
		}
	}
	JOINT RightUpLeg
	{
		OFFSET -6.626091 1.019270 -1.215050
		CHANNELS 3 Xrotation Yrotation Zrotation
		JOINT RightUpLegRoll
		{
			OFFSET 0.000000 -0.000003 17.951698
			CHANNELS 3 Xrotation Yrotation Zrotation
			JOINT RightLeg
			{
				OFFSET 0.000000 0.000003 -22.230400
				CHANNELS 3 Xrotation Yrotation Zrotation
				JOINT RightLegRoll
				{
					OFFSET 0.000000 -0.000003 22.303200
					CHANNELS 3 Xrotation Yrotation Zrotation
					JOINT RightFoot
					{
						OFFSET 0.000000 -0.000003 18.563599
						CHANNELS 3 Xrotation Yrotation Zrotation
						JOINT RightToeBase
						{
							OFFSET 0.000000 -0.000002 15.518295
							CHANNELS 3 Xrotation Yrotation Zrotation
							End Site
							{
								OFFSET 0.006577 0.866261 7.515396
							}
						}
					}
				}
			}
		}
	}
	JOINT LeftUpLeg
	{
		OFFSET 6.626087 1.019270 -1.215050
		CHANNELS 3 Xrotation Yrotation Zrotation
		JOINT LeftUpLegRoll
		{
			OFFSET 0.000000 -0.000003 17.951797
			CHANNELS 3 Xrotation Yrotation Zrotation
			JOINT LeftLeg
			{
				OFFSET 0.000000 -0.000004 22.230293
				CHANNELS 3 Xrotation Yrotation Zrotation
				JOINT LeftLegRoll
				{
					OFFSET 0.000000 -0.000004 22.509308
					CHANNELS 3 Xrotation Yrotation Zrotation
					JOINT LeftFoot
					{
						OFFSET 0.000000 -0.000003 18.357498
						CHANNELS 3 Xrotation Yrotation Zrotation
						JOINT LeftToeBase
						{
							OFFSET 0.000000 -0.000002 15.518295
							CHANNELS 3 Xrotation Yrotation Zrotation
							End Site
							{
								OFFSET -0.029480 0.866261 7.515396
							}
						}
					}
				}
			}
		}
	}
}
MOTION
Frames: 13
Frame Time: 0.041667
59.003792 -5.748955 93.005890 -10.017763 -0.830598 -3.982167 0.114768 -0.028545 0.160338 4.233133 -0.054401 0.320853 5.878202 -0.050568 0.321534 6.125685 14.309531 -1.639000 0.498557 -13.869693 -1.655599 -1.220099 -60.247097 -1.613360 -43.569343 -138.497385 -88.908047 -0.000003 0.000002 0.000000 75.699069 -2.457431 0.197637 -0.000000 0.000003 -3.003601 -5.000145 -7.999889 0.000033 -11.292603 78.488313 14.237501 -64.209406 127.365324 96.848900 -0.000003 0.000014 0.000005 79.899457 3.033851 3.201771 -0.000001 -0.000000 3.000001 -5.000230 7.998832 -0.000147 -2.480811 -175.053623 2.349222 -179.999991 0.000005 -1.285997 156.682231 -0.719977 -1.119329 -0.000005 0.000004 0.382364 69.021172 6.919992 2.070429 27.320758 -7.275324 2.765637 4.260795 -175.845474 4.604867 -0.000004 -0.000004 -1.158280 -9.422458 3.763894 0.545374 0.000004 -0.000001 -0.137417 70.967380 -6.788210 -2.254339 25.456957 7.355616 -0.000012 
59.008194 -5.749246 93.005608 -10.004458 -0.828442 -3.980767 0.107373 -0.028864 0.158496 4.218222 -0.055129 0.317184 5.863291 -0.051337 0.317865 6.224266 14.289066 -1.642344 0.435483 -13.860518 -1.652894 -1.227860 -60.237822 -1.621367 -43.656769 -138.446568 -88.982496 0.000000 -0.000002 0.000001 75.716499 -2.447037 0.187740 0.000001 0.000004 -3.003599 -5.000142 -7.999891 0.000031 -11.267439 78.502936 14.211398 -64.387749 127.320887 96.774997 -0.000002 0.000014 0.000005 79.909983 3.033411 3.202454 0.000001 -0.000002 3.000002 -5.000230 7.998830 -0.000150 -2.492170 -175.055658 2.346849 -179.999991 0.000005 -1.285997 156.686233 -0.721831 -1.119071 -0.000005 0.000004 0.382379 69.019471 6.919972 2.070532 27.317815 -7.275301 2.761352 4.246663 -175.849381 4.603387 -0.000005 -0.000004 -1.158261 -9.423095 3.763581 0.545366 0.000004 -0.000001 -0.137416 70.969183 -6.788181 -2.254426 25.456953 7.355613 -0.000012 
59.015892 -5.761525 93.007401 -9.991639 -0.826244 -3.979658 0.100174 -0.029182 0.156787 4.203703 -0.055874 0.313780 5.848774 -0.052120 0.314461 6.320260 14.268939 -1.645610 0.375929 -13.851915 -1.650038 -1.235496 -60.228956 -1.629275 -43.744496 -138.395929 -89.050552 -0.000002 -0.000001 0.000000 75.735917 -2.435782 0.176446 0.000001 0.000006 -3.003598 -5.000145 -7.999888 0.000032 -11.242140 78.517164 14.185139 -64.566099 127.279687 96.692044 -0.000004 0.000014 0.000005 79.918274 3.033906 3.201576 0.000000 0.000002 3.000001 -5.000230 7.998831 -0.000145 -2.502849 -175.058691 2.344550 -179.999991 0.000005 -1.285998 156.690318 -0.723685 -1.118797 -0.000004 0.000004 0.382395 69.017880 6.919953 2.070528 27.314794 -7.275266 2.757009 4.233343 -175.852304 4.602032 -0.000004 -0.000004 -1.158239 -9.423432 3.763253 0.545356 0.000004 -0.000001 -0.137416 70.970788 -6.788184 -2.254427 25.456953 7.355614 -0.000011 
59.012691 -5.758812 93.008011 -9.979672 -0.824029 -3.978891 0.093299 -0.029485 0.155242 4.189832 -0.056611 0.310708 5.834913 -0.052891 0.311390 6.411794 14.249293 -1.648673 0.321362 -13.843991 -1.646956 -1.243444 -60.220282 -1.637565 -43.832565 -138.344498 -89.112242 -0.000002 -0.000001 0.000000 75.757760 -2.423153 0.163219 -0.000000 0.000009 -3.003601 -5.000143 -7.999886 0.000032 -11.217630 78.530325 14.159664 -64.746164 127.241930 96.603224 -0.000004 0.000014 0.000005 79.923944 3.035401 3.199055 -0.000002 -0.000001 3.000001 -5.000229 7.998832 -0.000148 -2.512669 -175.060726 2.342241 -179.999991 0.000005 -1.285997 156.694621 -0.725553 -1.118540 -0.000004 0.000004 0.382411 69.016398 6.919944 2.070418 27.311854 -7.275240 2.752737 4.221153 -175.855241 4.600730 -0.000004 -0.000004 -1.158230 -9.423417 3.762917 0.545345 0.000004 -0.000001 -0.137415 70.972277 -6.788186 -2.254436 25.456959 7.355614 -0.000011 
59.018391 -5.752104 93.008011 -9.968777 -0.821822 -3.978563 0.086890 -0.029763 0.153899 4.176902 -0.057312 0.308038 5.821983 -0.053622 0.308721 6.496949 14.230093 -1.651377 0.273261 -13.836847 -1.643548 -1.252130 -60.211498 -1.646707 -43.918967 -138.293340 -89.164595 -0.000003 -0.000001 0.000001 75.782725 -2.408587 0.147504 0.000002 0.000003 -3.003600 -5.000143 -7.999890 0.000032 -11.194943 78.541882 14.136064 -64.924657 127.209213 96.505683 -0.000005 0.000014 0.000005 79.926505 3.037991 3.194714 0.000001 -0.000001 3.000003 -5.000228 7.998834 -0.000146 -2.521387 -175.063773 2.340041 -179.999991 0.000006 -1.285996 156.698801 -0.727407 -1.118279 -0.000005 0.000004 0.382426 69.015032 6.919940 2.070404 27.309026 -7.275200 2.748607 4.210412 -175.858178 4.599493 -0.000004 -0.000004 -1.158209 -9.422964 3.762606 0.545335 0.000004 -0.000001 -0.137416 70.973657 -6.788188 -2.254453 25.456957 7.355617 -0.000011 
59.016396 -5.754894 93.008110 -9.959180 -0.819649 -3.978738 0.081076 -0.030004 0.152794 4.165182 -0.057954 0.305838 5.810263 -0.054288 0.306521 6.573844 14.211590 -1.653608 0.233087 -13.830393 -1.639773 -1.261991 -60.202401 -1.657180 -44.002766 -138.242018 -89.206109 -0.000003 -0.000001 0.000000 75.811459 -2.391534 0.128789 0.000002 0.000006 -3.003600 -5.000142 -7.999889 0.000032 -11.174806 78.551000 14.115073 -65.102057 127.182152 96.401092 -0.000004 0.000014 0.000002 79.925453 3.041812 3.188181 0.000002 -0.000002 3.000001 -5.000229 7.998832 -0.000147 -2.528818 -175.065781 2.337861 -179.999991 0.000006 -1.285997 156.702995 -0.729275 -1.119020 -0.000004 0.000004 0.382441 69.013755 6.919941 2.070383 27.306394 -7.275167 2.744723 4.201435 -175.861102 4.598327 -0.000005 -0.000005 -1.158200 -9.421998 3.762331 0.545324 0.000003 -0.000001 -0.137415 70.974838 -6.788190 -2.254381 25.456957 7.355616 -0.000011 
59.017693 -5.763822 93.010208 -9.951143 -0.817537 -3.979491 0.076001 -0.030194 0.151958 4.154942 -0.058510 0.304175 5.800022 -0.054862 0.304860 6.640581 14.193647 -1.655210 0.202313 -13.824714 -1.635527 -1.273461 -60.192797 -1.669462 -44.084151 -138.189562 -89.236893 -0.000002 -0.000004 -0.000002 75.844558 -2.371456 0.106533 0.000001 0.000002 -3.003601 -5.000143 -7.999886 0.000033 -11.158307 78.557141 14.097824 -65.275189 127.162495 96.286556 -0.000003 0.000014 0.000004 79.920399 3.046939 3.179269 0.000000 -0.000000 3.000001 -5.000232 7.998837 -0.000146 -2.534747 -175.068813 2.335832 -179.999991 0.000005 -1.285997 156.706997 -0.730213 -1.118366 -0.000004 0.000004 0.382457 69.012805 6.919923 2.070339 27.303867 -7.275141 2.741159 4.194541 -175.864066 4.597251 -0.000004 -0.000004 -1.158180 -9.420463 3.762110 0.545316 0.000003 -0.000001 -0.137415 70.975897 -6.788193 -2.254318 25.456957 7.355614 -0.000011 
59.019093 -5.762597 93.011108 -9.944909 -0.815508 -3.980904 0.071788 -0.030324 0.151429 4.146473 -0.058956 0.303119 5.791543 -0.055320 0.303805 6.695255 14.176421 -1.656060 0.182410 -13.819832 -1.630759 -1.286965 -60.182354 -1.684021 -44.160359 -138.137694 -89.252848 -0.000001 -0.000002 0.000002 75.882691 -2.347821 0.080195 0.000000 0.000004 -3.003600 -5.000142 -7.999892 0.000033 -11.146499 78.559723 14.085388 -65.444496 127.150843 96.163722 -0.000003 0.000015 0.000004 79.910864 3.053492 3.167903 0.000001 0.000003 2.999998 -5.000230 7.998833 -0.000146 -2.538965 -175.070821 2.333868 -179.999991 0.000006 -1.285997 156.710699 -0.730233 -1.118319 -0.000005 0.000004 0.382474 69.011951 6.919913 2.070392 27.301735 -7.275112 2.738039 4.190049 -175.866033 4.596341 -0.000004 -0.000004 -1.158170 -9.418267 3.761967 0.545310 0.000004 -0.000001 -0.137416 70.976642 -6.788194 -2.254370 25.456953 7.355615 -0.000011 
59.019592 -5.766924 93.012199 -9.940342 -0.813531 -3.983089 0.068252 -0.030394 0.151234 4.139351 -0.059327 0.302726 5.784433 -0.055706 0.303414 6.739878 14.160363 -1.656760 0.173555 -13.816339 -1.625744 -1.301640 -60.171316 -1.699864 -44.232773 -138.084036 -89.257356 -0.000002 -0.000002 -0.000001 75.924519 -2.321376 0.050263 0.000001 0.000003 -3.003599 -5.000142 -7.999891 0.000033 -11.137387 78.560276 14.075724 -65.614342 127.145133 96.033361 -0.000005 0.000015 0.000006 79.897729 3.061967 3.153505 0.000001 -0.000000 3.000002 -5.000231 7.998835 -0.000148 -2.541557 -175.072816 2.331963 -179.999991 0.000005 -1.285996 156.714387 -0.730253 -1.118271 -0.000005 0.000004 0.382489 69.011425 6.919920 2.070326 27.299820 -7.275074 2.735194 4.188033 -175.868041 4.595478 -0.000004 -0.000004 -1.158161 -9.415070 3.761953 0.545305 0.000004 -0.000001 -0.137414 70.977058 -6.788195 -2.254447 25.456955 7.355615 -0.000011 
59.028294 -5.768843 93.021400 -9.937065 -0.811549 -3.986074 0.065089 -0.030421 0.151349 4.133003 -0.059679 0.302959 5.778072 -0.056085 0.303650 6.778117 14.145576 -1.657903 0.174180 -13.814639 -1.620791 -1.316337 -60.159780 -1.715698 -44.301252 -138.029490 -89.251065 -0.000002 -0.000002 0.000003 75.968560 -2.293284 0.017687 0.000001 0.000005 -3.003600 -5.000141 -7.999892 0.000031 -11.128280 78.560419 14.066073 -65.786121 127.143616 95.892482 -0.000004 0.000015 0.000003 79.882006 3.072630 3.136273 0.000002 0.000001 3.000001 -5.000231 7.998829 -0.000146 -2.542824 -175.074824 2.330043 -179.999991 0.000005 -1.285997 156.718103 -0.729357 -1.117830 -0.000004 0.000004 0.382504 69.011104 6.919904 2.070342 27.297905 -7.275048 2.732383 4.188182 -175.870022 4.594635 -0.000004 -0.000004 -1.158140 -9.410682 3.762068 0.545301 0.000004 -0.000000 -0.137415 70.977174 -6.788193 -2.254338 25.456955 7.355614 -0.000011 
59.029392 -5.758640 93.018600 -9.934962 -0.809559 -3.989754 0.062276 -0.030413 0.151742 4.127363 -0.060017 0.303742 5.772433 -0.056460 0.304438 6.810559 14.131737 -1.659354 0.183134 -13.814432 -1.615854 -1.331097 -60.148121 -1.731583 -44.366433 -137.974384 -89.234530 -0.000002 -0.000003 0.000000 76.014815 -2.263675 -0.017342 0.000001 0.000005 -3.003602 -5.000144 -7.999890 0.000030 -11.119451 78.560153 14.056686 -65.960776 127.145611 95.743270 -0.000005 0.000014 0.000004 79.863933 3.085173 3.116474 0.000003 0.000001 2.999999 -5.000229 7.998835 -0.000150 -2.542880 -175.076832 2.328117 -179.999991 0.000005 -1.285997 156.721901 -0.728449 -1.118379 -0.000006 0.000004 0.382518 69.010995 6.919858 2.070341 27.295972 -7.275021 2.729614 4.190244 -175.872030 4.593807 -0.000004 -0.000004 -1.158130 -9.405311 3.762294 0.545298 0.000004 -0.000001 -0.137416 70.976860 -6.788195 -2.254358 25.456957 7.355615 -0.000011 
59.023594 -5.762233 93.010811 -9.933895 -0.807555 -3.993998 0.059803 -0.030377 0.152375 4.122392 -0.060346 0.305009 5.767463 -0.056830 0.305707 6.837788 14.118843 -1.661007 0.199263 -13.815419 -1.610859 -1.345940 -60.136271 -1.747559 -44.429663 -137.918322 -89.209244 -0.000003 -0.000001 0.000001 76.063206 -2.232690 -0.054644 0.000000 0.000010 -3.003599 -5.000144 -7.999892 0.000033 -11.110881 78.559258 14.047551 -66.137719 127.150624 95.586162 -0.000004 0.000014 0.000002 79.843218 3.099376 3.094300 0.000000 0.000000 3.000001 -5.000230 7.998837 -0.000146 -2.541843 -175.078826 2.326204 -179.999991 0.000006 -1.285996 156.725698 -0.727554 -1.117938 -0.000005 0.000004 0.382533 69.010893 6.919891 2.070354 27.294153 -7.274987 2.726873 4.193936 -175.874052 4.593008 -0.000004 -0.000004 -1.158110 -9.399151 3.762579 0.545295 0.000003 -0.000001 -0.137416 70.976232 -6.788226 -2.254403 25.456957 7.355615 -0.000011 
59.027893 -5.771033 93.014610 -9.933752 -0.805532 -3.998722 0.057633 -0.030322 0.153210 4.118052 -0.060670 0.306680 5.763122 -0.057197 0.307384 6.860407 14.106477 -1.662720 0.221424 -13.817398 -1.605758 -1.360901 -60.124523 -1.763681 -44.491255 -137.861440 -89.175701 -0.000002 -0.000003 -0.000002 76.113982 -2.200414 -0.094028 0.000000 0.000007 -3.003602 -5.000144 -7.999888 0.000033 -11.102728 78.557735 14.038830 -66.314348 127.159312 95.418665 -0.000004 0.000015 0.000003 79.820104 3.114946 3.070217 0.000001 -0.000001 3.000002 -5.000230 7.998834 -0.000147 -2.539850 -175.080807 2.324303 -179.999991 0.000005 -1.285996 156.729714 -0.726660 -1.118489 -0.000006 0.000004 0.382548 69.011002 6.919894 2.070246 27.292341 -7.274950 2.724165 4.199015 -175.875063 4.592320 -0.000005 -0.000004 -1.158101 -9.392389 3.762909 0.545290 0.000004 -0.000000 -0.137415 70.975474 -6.788192 -2.254441 25.456955 7.355614 -0.000011 
